<!--Created with Inkscape (http://www.inkscape.org/)-->
<svg xmlns="http://www.w3.org/2000/svg" xml:space="preserve" viewBox="0 0 934.59584 592.79938">
  <path d="M1613.4603-796.00477c-6.8677-2.142-12.6525-7.26514-16.5644-14.66968-3.5976-6.80969-3.8502-23.17817-.5283-34.23426 3.2303-10.75153 14.3305-26.66807 24.378-34.95568 11.5445-9.52246 22.1543-15.62917 48.9891-28.19679l22.8898-10.72007.4261-5.15284c.6391-7.72871-.6896-11.13006-5.2741-13.50078-4.7535-2.45815-10.9347-1.75832-18.4833 2.09269-5.9789 3.05023-15.5835 13.34019-18.1217 19.41491l-1.9162 4.58615h-46.5126l1.8099-5.12965c6.6856-18.949 22.0441-38.60518 39.4051-50.43164 16.669-11.35492 43.0684-21.37238 59.7043-22.65526 20.7262-1.59828 34.767 6.54952 41.7315 24.21655 3.1232 7.92251 3.1583 8.58315 3.6212 68.20181l.4674 60.20181-7.0955 2.61276c-3.9025 1.43701-15.3978 5.49693-25.5451 9.02204-20.4786 7.11416-19.9978 7.18327-21.5393-3.09614-1.4953-9.97134-1.8928-10.06292-7.9522-1.83186-14.3018 19.42761-27.0189 28.51615-47.0808 33.64711-11.6502 2.97962-18.6284 3.13028-26.8089.57882zm61.8485-54.60956c10.2214-5.99013 16.6391-16.7785 17.6777-29.71662l.6778-8.44365-13.8533 6.74401c-7.6192 3.70921-15.9339 8.08175-18.477 9.71675-9.5327 6.12864-13.7094 18.10395-8.3763 24.01607 3.2043 3.5521 14.2992 2.40218 22.3511-2.31656zm106.3058-82.86011.3432-84.79996 23.9077-8.5333c13.1492-4.6934 24.369-8.5334 24.9329-8.5334.5639 0 1.7335 3.6 2.5991 8 .8657 4.4 2.0073 8 2.5371 8 .5297 0 3.817-3.6325 7.3051-8.0722 16.3211-20.7741 37.3401-31.8743 60.4276-31.9119 15.0066-.024 24.1749 5.2489 30.3656 17.4656 6.7234 13.2681 7.2173 18.7279 7.2385 80.02339l.02 56.83824-3.6666 1.46185c-7.9568 3.17225-48.7967 17.52834-49.8644 17.52834-.6246 0-1.139-21.75-1.1431-48.33334-.01-51.55444-.5056-56.4534-6.3662-62.66666-8.7914-9.32032-30.0997-.78039-38.6919 15.50701l-3.6011 6.82632-.3896 53.49749-.3896 53.49749-26.9437 9.50579c-14.8191 5.22818-27.3982 9.50431-27.9536 9.50251-.5555-.002-.8555-38.16328-.6667-84.80327zm223.6765-1.0318c-19.3953-5.33955-30.4249-18.50649-35.5151-42.39721-3.1486-14.778-1.8422-41.99545 2.773-57.77095 9.861-33.707 29.732-58.839 57.4088-72.6083 19.8376-9.8692 35.4521-11.6694 49.0491-5.6548 3.344 1.4792 6.426 2.3436 6.8488 1.9207.4228-.4228.7691-20.9187.7696-45.5465l.0008-44.7778 26.9992-9.465 26.9992-9.4651.3403 122.0136c.1872 67.1075.1125 122.24146-.1661 122.51999-1.2726 1.27259-48.1289 17.50323-48.9913 16.97021-.5355-.33098-1.3907-4.49546-1.9003-9.25441-.5097-4.75895-1.3067-8.63717-1.7713-8.61826-.4646.0189-2.9048 3.07053-5.4227 6.78138-11.1712 16.46388-33.2834 31.09292-53.1758 35.18015-11.5155 2.36605-16.1578 2.39904-24.2462.1723zm56-62.66771c17.241-9.66115 27.2396-30.92885 23.974-50.99395-1.2167-7.4753-5.7669-15.2315-10.3861-17.7036-13.1833-7.0555-31.9427 2.7009-42.0394 21.8638-3.991 7.5745-4.2151 8.7799-4.2151 22.6666 0 12.9036.3616 15.2482 3.0083 19.5041 6.0225 9.68453 17.4819 11.48623 29.6583 4.66305zm127.221 16.03015c-8.7261-2.86106-13.7966-6.45411-17.9536-12.72231-10.2503-15.45619-5.4202-35.55439 10.7326-44.65879 6.6-3.72 8.4667-4.1342 18.6667-4.1414 10.2069-.01 12.0622.4018 18.6667 4.1161 22.6313 12.7275 21.314 45.03354-2.2616 55.46216-7.7399 3.42371-20.6003 4.32148-27.8508 1.94424zm116.6183-2.55105c-13.8496-4.81108-23.6889-13.83062-31.0285-28.44335-7.3861-14.7055-7.8311-19.0318-8.4539-82.2029l-.5751-58.3333h56.1034l.3907 53 .3908 53 3.3333 5.8674c4.7256 8.3181 10.3952 11.072 21.6241 10.5036 10.5592-.5344 14.73-3.0363 19.7093-11.8225l3.3333-5.8818.3914-52.3334.3914-52.3333h55.8838v170.66662h-25.2434c-22.8993 0-25.3052-.21668-25.9082-2.33334-.3656-1.28333-1.3567-5.82245-2.2024-10.08694l-1.5378-7.75364-7.2172 6.8258c-11.2625 10.65163-19.6281 13.94021-36.5576 14.37114-11.7694.29959-15.4065-.13221-22.8274-2.71009zm162.8274-83.64625v-85.3333h54.6666v170.66662h-54.6666zm-758 39.555c-20.4687-6.8402-31.8188-20.629-36.2671-44.0595-5.8564-30.848 3.9299-66.6773 25.6149-93.7802 30.1292-37.6569 87.1017-57.8159 116.0314-41.0561 8.4242 4.8804 17.1929 15.156 20.5443 24.0749 4.1485 11.0405 6.1939 28.5734 4.6497 39.8577l-1.2399 9.0603-53.8046 19.0897c-29.5926 10.4994-54.0253 19.3104-54.295 19.5801-.2697.2696.74 2.9771 2.2438 6.0165 4.0296 8.1445 11.7826 11.6366 21.7459 9.7948 12.6207-2.3331 23.24-9.3101 29.6733-19.4959 2.7821-4.4049 4.8181-6.1364 7.77-6.608 7.9197-1.2654 45.125-4.682 45.6178-4.1892 1.084 1.084-12.6713 25.9988-18.6263 33.7378-16.3011 21.1845-41.0345 37.3679-70.3249 46.0145-11.2346 3.3165-32.1578 4.3605-39.3333 1.9626zm46-108.4929c9.1667-3.301 18.3167-6.5991 20.3333-7.3291 2.839-1.0276 3.6667-2.1903 3.6667-5.1503 0-5.27-6.9385-12.9294-12.69-14.0084-5.9668-1.1193-16.9617 3.9313-23.6866 10.8807-5.6663 5.8555-11.6234 16.8439-11.6234 21.4405 0 2.7737.3195 2.9135 3.6667 1.6035 2.0166-.7892 11.1666-4.1358 20.3333-7.4369zm113.3377-22.7719v-84.9568l23.6623-8.3381c13.0142-4.586 24.3431-8.336 25.1753-8.3334.8383 0 1.9337 3.3717 2.4563 7.5544 1.6911 13.535 2.2474 13.9178 7.8843 5.4255 10.3595-15.6073 29.2895-29.5273 47.3884-34.8466 3.9831-1.1707 7.4331-2.1285 7.6666-2.1285.2336 0 .4247 11.6016.4247 25.7814v25.7814l-8.0594 2.2407c-18.9804 5.277-35.708 19.0074-43.9309 36.0595-2.9403 6.0973-5.8153 14.5791-6.5997 19.4703-.7644 4.7667-1.3944 25.1944-1.3999 45.3948l-.01 36.7282-8.3333 2.7861c-4.5834 1.5324-16.8834 5.8353-27.3334 9.562l-19 6.7759zm138.6623-86.6255v-122.6207l25.6667-9.0415c14.1166-4.9728 26.4166-9.3219 27.3333-9.6646 1.3258-.4957 1.6667 24.4402 1.6667 121.911v122.5341l-25.6667 9.1371c-14.1167 5.0253-26.4167 9.4133-27.3333 9.7511-1.3257.4885-1.6667-24.4714-1.6667-122.0065zm473.2567 77.6891c-6.8066-2.1859-14.6319-9.2725-17.9423-16.2486-3.0741-6.4781-2.8119-18.9162.5371-25.4808 11.2792-22.1091 47.6069-23.4557 60.8151-2.2542 3.4852 5.5944 4 7.6635 4 16.0771 0 8.5976-.4431 10.2868-4.0412 15.4063-2.2227 3.1625-6.8956 7.5148-10.3844 9.6717-5.3121 3.2842-8.0144 3.9914-16.6254 4.3508-6.5016.2714-12.5166-.2884-16.3589-1.5223z" style="fill:#ff417c;fill-opacity:1" transform="translate(-1594.0287 1387.0104)"/>
</svg>
